<?xml version="1.0" encoding="UTF-8" standalone="no"?>
<svg
   viewBox="0 0 36 36"
   version="1.1"
   id="svg4"
   sodipodi:docname="icon-512.svg"
   inkscape:version="1.4.3 (0d15f75042, 2025-12-25)"
   xmlns:inkscape="http://www.inkscape.org/namespaces/inkscape"
   xmlns:sodipodi="http://sodipodi.sourceforge.net/DTD/sodipodi-0.dtd"
   xmlns="http://www.w3.org/2000/svg"
   xmlns:svg="http://www.w3.org/2000/svg">
  <defs
     id="defs4" />
  <sodipodi:namedview
     id="namedview4"
     pagecolor="#ffffff"
     bordercolor="#000000"
     borderopacity="0.25"
     inkscape:showpageshadow="2"
     inkscape:pageopacity="0.0"
     inkscape:pagecheckerboard="0"
     inkscape:deskcolor="#d1d1d1"
     inkscape:zoom="9.5852253"
     inkscape:cx="23.056318"
     inkscape:cy="8.8678145"
     inkscape:window-width="1129"
     inkscape:window-height="1328"
     inkscape:window-x="26"
     inkscape:window-y="23"
     inkscape:window-maximized="0"
     inkscape:current-layer="svg4" />
  <ellipse
     cx="18"
     cy="26"
     fill="#292F33"
     rx="18"
     ry="10"
     id="ellipse1" />
  <ellipse
     cx="18"
     cy="24"
     fill="#66757F"
     rx="18"
     ry="10"
     id="ellipse2" />
  <path
     fill="#E1E8ED"
     d="M18 31C3.042 31 1 16 1 12h34c0 2-1.958 19-17 19"
     id="path2" />
  <path
     fill="#77B255"
     d="M35 12.056c0 5.216-7.611 9.444-17 9.444S1 17.271 1 12.056s7.611-8.445 17-8.445 17 3.229 17 8.445"
     id="path3" />
  <ellipse
     cx="18"
     cy="13"
     fill="#A6D388"
     rx="15"
     ry="7"
     id="ellipse3" />
  <path
     fill="#5C913B"
     d="M21 17a1 1 0 0 1-.707-.293c-2.337-2.337-2.376-4.885-.125-8.262.739-1.109.9-2.246.478-3.377-.461-1.236-1.438-1.996-1.731-2.077-.553 0-.958-.443-.958-.996S18.448 1 19 1c.997 0 2.395 1.153 3.183 2.625 1.034 1.933.91 4.039-.351 5.929-1.961 2.942-1.531 4.332-.125 5.738A.999.999 0 0 1 21 17m-6-2a1 1 0 0 1-.707-.293c-2.337-2.337-2.376-4.885-.125-8.262.727-1.091.893-2.083.494-2.947-.444-.961-1.431-1.469-1.684-1.499a.99.99 0 0 1-.989-1c0-.552.458-1 1.011-1 .997 0 2.585.974 3.36 2.423.481.899 1.052 2.761-.528 5.131-1.961 2.942-1.531 4.332-.125 5.738a1 1 0 0 1 0 1.414A1 1 0 0 1 15 15"
     id="path4" />
</svg>
